<svg width="26" height="22" viewBox="0 0 26 22" fill="none" xmlns="http://www.w3.org/2000/svg">
<path d="M20.7763 9.44212C22.3592 9.60468 23.6256 10.2956 24.5753 11.5148C25.5251 12.734 26 14.2377 26 16.0259C26 17.7328 25.446 19.1552 24.3379 20.2931C23.2298 21.431 21.726 22 19.8265 22C18.0061 22 16.5419 21.431 15.4338 20.2931C14.3257 19.0739 13.7717 17.2451 13.7717 14.8066C13.7717 12.2869 14.8006 9.48276 16.8584 6.39409C18.9163 3.22414 21.0533 1.11084 23.2694 0.0541861C23.586 -0.108373 24.0609 0.0948284 24.6941 0.663791C25.3272 1.23276 25.6438 1.72045 25.6438 2.12685C23.3486 3.75246 21.726 6.19089 20.7763 9.44212ZM7.00457 9.44212C8.50837 9.60468 9.73516 10.2956 10.6849 11.5148C11.6347 12.734 12.1096 14.2377 12.1096 16.0259C12.1096 17.7328 11.5556 19.1552 10.4475 20.2931C9.41857 21.431 7.95434 22 6.05479 22C4.2344 22 2.77017 21.431 1.6621 20.2931C0.554033 19.0739 0 17.2451 0 14.8066C0 12.2869 0.989345 9.48276 2.96804 6.39409C5.02588 3.22414 7.20244 1.11084 9.49772 0.0541861C9.81431 -0.108373 10.2892 0.0948284 10.9224 0.663791C11.5556 1.23276 11.8721 1.72045 11.8721 2.12685C9.57686 3.75246 7.95434 6.19089 7.00457 9.44212Z" fill="#80878E"/>
</svg>
