<svg width="142" height="24" viewBox="0 0 142 24" fill="none" xmlns="http://www.w3.org/2000/svg">
<g clip-path="url(#clip0_7_23)">
<path fill-rule="evenodd" clip-rule="evenodd" d="M11.3947 23.743V19.6843C12.8692 19.6843 14.3106 19.2266 15.5363 18.3692C16.7619 17.5117 17.7168 16.2931 18.2799 14.8676C18.843 13.4421 18.989 11.8739 18.6994 10.3615C18.4099 8.8492 17.6978 7.46075 16.6533 6.37203C15.6088 5.28331 14.279 4.54328 12.8321 4.24566C11.3853 3.94805 9.88658 4.10623 8.52575 4.70018C7.16493 5.29414 6.00322 6.29714 5.18774 7.58217C4.37225 8.86721 3.93968 10.3765 3.9448 11.9188H0C0 9.56151 0.668285 7.25713 1.92035 5.29709C3.17241 3.33705 4.95201 1.80938 7.03411 0.907272C9.11622 0.00516428 11.4073 -0.230868 13.6177 0.229022C15.828 0.688913 17.8583 1.82407 19.4519 3.49095C21.0455 5.15783 22.1307 7.28156 22.5704 9.59359C23.01 11.9056 22.7844 14.3021 21.922 16.48C21.0595 18.6579 19.599 20.5193 17.7252 21.829C15.8514 23.1386 13.6483 23.8377 11.3947 23.8377V23.743Z" fill="white"/>
<path fill-rule="evenodd" clip-rule="evenodd" d="M42.4228 23.5941H38.3616L34.3263 13.0282L30.2392 23.5941H26.178L32.9941 6.8726H35.5808L42.4228 23.5941ZM60.5301 16.4104H47.661C47.801 17.522 48.3312 18.5394 49.1484 19.2649C50.0201 19.9918 51.1127 20.3664 52.2266 20.3202C52.9464 20.3335 53.6613 20.1941 54.3282 19.9104C54.9951 19.6268 55.6001 19.2047 56.1068 18.6697L59.4954 20.2931C58.72 21.4416 57.6846 22.3712 56.4818 22.9989C55.1718 23.6231 53.7434 23.9284 52.3042 23.8918C51.1789 23.9374 50.0566 23.7413 49.0066 23.3155C47.9566 22.8896 47.0013 22.2432 46.1995 21.416C45.4207 20.6075 44.8088 19.6405 44.4017 18.5747C43.9945 17.5089 43.8009 16.3671 43.8326 15.2198C43.7995 14.0502 43.9921 12.8855 44.3987 11.7954C44.8054 10.7053 45.4178 9.712 46.1995 8.87486C46.9633 8.04864 47.8835 7.39813 48.9012 6.96485C49.919 6.53158 51.0119 6.32507 52.1102 6.35851C53.2437 6.33324 54.37 6.55334 55.4183 7.005C56.4666 7.45665 57.4144 8.13011 58.202 8.98309C59.0036 9.86672 59.6264 10.9105 60.0331 12.0519C60.4398 13.1933 60.622 14.4089 60.5689 15.6257V16.4104H60.5301ZM56.5336 13.1364C56.2694 12.228 55.7175 11.4408 54.9686 10.9042C54.1711 10.3291 53.2209 10.0309 52.2525 10.0519C51.3003 10.0054 50.359 10.2801 49.5673 10.8354C48.7757 11.3908 48.1754 12.1974 47.855 13.1364H56.5336ZM63.8024 6.8726H73.1276V10.823H67.7989V23.54H63.8024V6.8726ZM83.3582 6.46674C84.8509 6.46071 86.3187 6.86671 87.6134 7.64374C88.9113 8.38482 89.9895 9.48459 90.7305 10.823C91.47 12.1578 91.85 13.6772 91.8299 15.2198C91.8356 16.7684 91.4472 18.2906 90.7046 19.6302C89.9793 20.9777 88.9146 22.0914 87.6264 22.8501C86.3218 23.6229 84.8445 24.0197 83.3453 24C82.2506 24.0172 81.164 23.8006 80.1521 23.3632C79.1402 22.9259 78.2243 22.2771 77.4604 21.4566C76.671 20.6496 76.047 19.6828 75.6267 18.6151C75.2064 17.5474 74.9986 16.4014 75.0159 15.2469C74.9926 14.0156 75.2271 12.7938 75.703 11.6674C76.1789 10.5409 76.8847 9.53697 77.7708 8.72604C79.2782 7.26193 81.2625 6.45397 83.3194 6.46674H83.3582ZM83.3582 10.4036C82.7768 10.3857 82.1983 10.497 81.6609 10.7302C81.1236 10.9635 80.6397 11.3132 80.2412 11.7565C79.816 12.2174 79.4826 12.7621 79.2606 13.359C79.0386 13.9559 78.9322 14.5931 78.9478 15.2334C78.9277 15.8803 79.0319 16.5249 79.254 17.1291C79.4762 17.7332 79.8118 18.2847 80.2412 18.7508C80.6383 19.1924 81.1201 19.5411 81.655 19.7743C82.19 20.0074 82.766 20.1197 83.3453 20.1037C83.9304 20.1195 84.5121 20.0073 85.0533 19.7744C85.5945 19.5414 86.0832 19.1928 86.4882 18.7508C86.9142 18.285 87.2478 17.7355 87.4698 17.1341C87.6918 16.5327 87.7978 15.8913 87.7816 15.2469C87.8004 14.6042 87.6956 13.964 87.4734 13.3645C87.2512 12.7649 86.9162 12.2181 86.4882 11.7565C86.0872 11.3129 85.601 10.963 85.0616 10.7298C84.5221 10.4967 83.9417 10.3855 83.3582 10.4036ZM94.9986 23.5941V6.8726H101.466C103.574 6.8726 105.009 7.30552 105.76 8.22548C106.491 9.01653 106.899 10.0743 106.898 11.1747C106.916 11.9435 106.701 12.6986 106.283 13.3309C105.864 13.9632 105.264 14.44 104.57 14.6922C105.496 14.9009 106.324 15.4376 106.916 16.2116C107.507 16.9856 107.825 17.9494 107.816 18.9403C107.852 19.9512 107.555 20.9444 106.975 21.7542C106.444 22.4811 105.699 23.0042 104.854 23.2424C103.675 23.5217 102.467 23.6445 101.259 23.6077L94.9986 23.5941ZM98.9952 13.4476H100.56C100.849 13.4784 101.14 13.4488 101.418 13.3606C101.696 13.2723 101.954 13.1271 102.177 12.9335C102.341 12.7971 102.475 12.6247 102.569 12.4283C102.663 12.232 102.714 12.0165 102.72 11.7971C102.732 11.5274 102.69 11.258 102.596 11.0064C102.503 10.7547 102.36 10.5264 102.177 10.336C102.009 10.1585 101.807 10.0208 101.584 9.93207C101.36 9.84338 101.122 9.8058 100.884 9.82187H99.1116V13.4476H98.9952ZM98.9952 20.3472H101.142C101.445 20.381 101.751 20.3479 102.041 20.25C102.33 20.1521 102.597 19.9916 102.824 19.779C103.106 19.4765 103.276 19.0782 103.302 18.6561C103.3 18.1115 103.107 17.5867 102.759 17.1815C102.499 16.9286 102.19 16.7373 101.853 16.6205C101.516 16.5038 101.159 16.4644 100.806 16.5051H99.1116V20.2931L98.9952 20.3472ZM113.222 23.5941H111.231V6.8726H115.111V16.6945L123.298 6.8726H125.225V23.5941H121.345V13.9752L113.365 23.5941H113.222ZM137.797 16.9515H134.77C132.995 17.0566 131.233 16.584 129.726 15.5986C129.112 15.0862 128.631 14.4222 128.324 13.6665C128.016 12.9108 127.894 12.087 127.967 11.2694V6.8726H131.925V10.9312C131.925 12.3923 132.869 13.1364 134.757 13.1364H137.939V6.8726H141.948V23.5941H137.939L137.797 16.9515Z" fill="white"/>
<path fill-rule="evenodd" clip-rule="evenodd" d="M0 19.6302H4.02241V23.8376H8.03188V15.4228H0V19.6302Z" fill="#337ED9"/>
</g>
<defs>
<clipPath id="clip0_7_23">
<rect width="142" height="24" fill="white"/>
</clipPath>
</defs>
</svg>
