<svg width="22" height="22" viewBox="0 0 22 22" fill="none" xmlns="http://www.w3.org/2000/svg">
<g clip-path="url(#clip0_94_385)">
<path d="M10.9997 1.83301C5.93692 1.83301 1.83301 5.93692 1.83301 10.9997C1.83301 15.5748 5.18526 19.367 9.56784 20.0554V13.6488H7.23951V10.9997H9.56784V8.98026C9.56784 6.68309 10.9355 5.41442 13.0301 5.41442C14.0329 5.41442 15.0816 5.59317 15.0816 5.59317V7.84817H13.9266C12.7872 7.84817 12.4324 8.55492 12.4324 9.28001V10.9997H14.9743L14.5683 13.6488H12.4324V20.0554C16.8141 19.3679 20.1663 15.5738 20.1663 10.9997C20.1663 5.93692 16.0624 1.83301 10.9997 1.83301Z" fill="#337ED9"/>
</g>
<defs>
<clipPath id="clip0_94_385">
<rect width="22" height="22" fill="white"/>
</clipPath>
</defs>
</svg>
