<svg width="22" height="22" viewBox="0 0 22 22" fill="none" xmlns="http://www.w3.org/2000/svg">
<g clip-path="url(#clip0_94_379)">
<path d="M10.9997 1.83301C13.4903 1.83301 13.801 1.84217 14.7782 1.88801C15.7544 1.93384 16.419 2.08692 17.0038 2.31426C17.6088 2.54709 18.1185 2.86242 18.6282 3.37117C19.0943 3.82941 19.455 4.38371 19.6851 4.99551C19.9115 5.57942 20.0655 6.24492 20.1113 7.22117C20.1544 8.19834 20.1663 8.50909 20.1663 10.9997C20.1663 13.4903 20.1572 13.801 20.1113 14.7782C20.0655 15.7544 19.9115 16.419 19.6851 17.0038C19.4556 17.616 19.0949 18.1704 18.6282 18.6282C18.1698 19.0941 17.6155 19.4548 17.0038 19.6851C16.4199 19.9115 15.7544 20.0655 14.7782 20.1113C13.801 20.1544 13.4903 20.1663 10.9997 20.1663C8.50909 20.1663 8.19834 20.1572 7.22117 20.1113C6.24492 20.0655 5.58034 19.9115 4.99551 19.6851C4.38347 19.4554 3.82907 19.0947 3.37117 18.6282C2.90496 18.17 2.54428 17.6157 2.31426 17.0038C2.08692 16.4199 1.93384 15.7544 1.88801 14.7782C1.84492 13.801 1.83301 13.4903 1.83301 10.9997C1.83301 8.50909 1.84217 8.19834 1.88801 7.22117C1.93384 6.24401 2.08692 5.58034 2.31426 4.99551C2.54364 4.38334 2.90441 3.82889 3.37117 3.37117C3.82921 2.9048 4.38357 2.54409 4.99551 2.31426C5.58034 2.08692 6.24401 1.93384 7.22117 1.88801C8.19834 1.84492 8.50909 1.83301 10.9997 1.83301ZM10.9997 6.41634C9.7841 6.41634 8.61831 6.89923 7.75877 7.75877C6.89923 8.61831 6.41634 9.7841 6.41634 10.9997C6.41634 12.2153 6.89923 13.381 7.75877 14.2406C8.61831 15.1001 9.7841 15.583 10.9997 15.583C12.2153 15.583 13.381 15.1001 14.2406 14.2406C15.1001 13.381 15.583 12.2153 15.583 10.9997C15.583 9.7841 15.1001 8.61831 14.2406 7.75877C13.381 6.89923 12.2153 6.41634 10.9997 6.41634ZM16.958 6.18717C16.958 5.88328 16.8373 5.59183 16.6224 5.37695C16.4075 5.16206 16.1161 5.04134 15.8122 5.04134C15.5083 5.04134 15.2168 5.16206 15.0019 5.37695C14.7871 5.59183 14.6663 5.88328 14.6663 6.18717C14.6663 6.49107 14.7871 6.78252 15.0019 6.9974C15.2168 7.21229 15.5083 7.33301 15.8122 7.33301C16.1161 7.33301 16.4075 7.21229 16.6224 6.9974C16.8373 6.78252 16.958 6.49107 16.958 6.18717ZM10.9997 8.24967C11.729 8.24967 12.4285 8.53941 12.9442 9.05513C13.4599 9.57086 13.7497 10.2703 13.7497 10.9997C13.7497 11.729 13.4599 12.4285 12.9442 12.9442C12.4285 13.4599 11.729 13.7497 10.9997 13.7497C10.2703 13.7497 9.57086 13.4599 9.05513 12.9442C8.53941 12.4285 8.24967 11.729 8.24967 10.9997C8.24967 10.2703 8.53941 9.57086 9.05513 9.05513C9.57086 8.53941 10.2703 8.24967 10.9997 8.24967Z" fill="#337ED9"/>
</g>
<defs>
<clipPath id="clip0_94_379">
<rect width="22" height="22" fill="white"/>
</clipPath>
</defs>
</svg>
