<svg width="22" height="22" viewBox="0 0 22 22" fill="none" xmlns="http://www.w3.org/2000/svg">
<g clip-path="url(#clip0_94_373)">
<path d="M10.9997 20.1663C5.93692 20.1663 1.83301 16.0624 1.83301 10.9997C1.83301 5.93692 5.93692 1.83301 10.9997 1.83301C16.0624 1.83301 20.1663 5.93692 20.1663 10.9997C20.1663 16.0624 16.0624 20.1663 10.9997 20.1663ZM8.14884 12.0722L8.16076 12.0658L8.95826 14.6966C9.06092 14.9817 9.20209 15.033 9.37351 15.0092C9.54584 14.9863 9.63659 14.8937 9.74934 14.7855L10.8383 13.7332L13.1758 15.4638C13.603 15.6994 13.9101 15.5775 14.0164 15.0678L15.5353 7.89767C15.7031 7.23034 15.4098 6.96267 14.8918 7.17534L5.96992 10.622C5.36126 10.8658 5.36492 11.2068 5.85992 11.3581L8.14884 12.0731V12.0722Z" fill="white"/>
</g>
<defs>
<clipPath id="clip0_94_373">
<rect width="22" height="22" fill="white"/>
</clipPath>
</defs>
</svg>
