<svg width="77" height="31" viewBox="0 0 77 31" fill="none" xmlns="http://www.w3.org/2000/svg">
<path fill-rule="evenodd" clip-rule="evenodd" d="M11.0195 8.34513C8.89543 8.80641 5.66297 10.6903 3.86539 12.5147C2.93206 13.4621 1.83265 15.0881 1.21884 16.4284C0.321383 18.3878 0.150659 19.192 0.0450362 21.9532C-0.0708832 24.9798 -0.0180718 25.3029 0.8764 27.0443C1.65362 28.5577 2.16048 29.0796 3.60167 29.8507C5.14881 30.6784 5.74136 30.7978 8.30686 30.7978C11.4271 30.7978 14.1812 30.3382 15.0531 29.6722C15.3451 29.4493 15.6825 28.7513 15.8034 28.1209L16.0236 26.9749L14.7286 27.164C10.6522 27.7604 9.94933 27.7903 8.83299 27.4127C7.07526 26.8188 5.96025 25.2924 5.96025 23.4799C5.96025 22.6645 6.10606 21.6049 6.28409 21.1249C6.59431 20.2894 6.7202 20.2523 9.24418 20.2523C12.1043 20.2523 16.1349 19.5774 17.9737 18.7906C20.7202 17.6153 22.6314 14.77 22.1082 12.6354C21.7851 11.3169 20.0692 9.50547 18.5556 8.88533C16.9121 8.21178 12.9443 7.92739 11.0195 8.34513ZM26.0551 8.5744C24.7159 8.9418 24.2283 9.73304 24.225 11.5455C24.2234 12.4987 24.0108 15.2687 23.7527 17.701C23.2771 22.1838 23.0834 25.2101 23.1791 26.6684C23.2276 27.4066 23.3329 27.4525 24.4774 27.2344C25.1627 27.1038 26.4198 26.6908 27.2718 26.317L28.8206 25.6366L29.0282 22.3492C29.1421 20.5411 29.3882 16.8587 29.5749 14.1662C29.7858 11.1189 29.7965 9.15032 29.6025 8.95166C29.2232 8.56318 26.9695 8.32335 26.0551 8.5744ZM43.3683 8.84587C42.6602 9.1044 41.967 9.4422 41.8278 9.5963C41.0881 10.4158 37.8318 14.586 34.1041 19.4873C30.2588 24.5433 30.0067 24.9597 31.1526 24.361C33.8041 22.9758 38.1779 19.327 42.1643 15.1759C46.6974 10.4552 47.5999 9.18842 46.7991 8.66931C46.1228 8.23117 44.8763 8.29546 43.3683 8.84587ZM17.0682 11.4836C18.2763 13.2498 17.1333 15.3034 14.3915 16.2944C12.7121 16.9009 8.0076 17.7 7.73823 17.4241C7.48015 17.1601 9.05519 14.4169 10.2964 12.9691C11.5881 11.4625 13.0971 10.7444 14.9923 10.7352C16.2319 10.7291 16.6574 10.8822 17.0682 11.4836Z" fill="#E41E26"/>
<path fill-rule="evenodd" clip-rule="evenodd" d="M71.1442 0.0904509C70.8662 0.189783 70.729 1.01505 70.729 2.59143V4.94443H68.3807C66.1358 4.94443 66.0374 4.97811 66.1387 5.70983C66.2354 6.40481 66.4503 6.48441 68.4721 6.57558L70.6995 6.67559L70.7971 8.95681C70.8855 11.0122 70.9675 11.2482 71.6268 11.3442C72.3117 11.4442 72.3648 11.3027 72.4572 9.13302L72.5558 6.8154L74.7148 6.64531C76.6263 6.49461 76.8857 6.38916 76.9777 5.72582C77.0754 5.02437 76.9372 4.96994 74.8188 4.87537L72.5558 4.77434L72.4582 2.50877C72.3629 0.291495 72.0732 -0.241561 71.1442 0.0904509ZM56.2806 8.40403C55.3672 8.58126 53.5065 9.27318 52.1461 9.94196C48.8432 11.5656 46.5022 13.9839 44.893 17.4357C43.747 19.8935 43.659 20.3048 43.659 23.1973C43.659 26.1752 43.7045 26.3698 44.691 27.6182C48.4509 32.3763 57.8949 32.0623 63.2846 26.9998C67.659 22.8908 69.7043 15.9903 67.6494 12.2742C65.7179 8.78162 61.5863 7.37533 56.2806 8.40403ZM59.7808 11.833C62.8339 13.4097 63.5752 17.4442 61.6182 21.8305C59.9924 25.4744 57.493 27.3971 54.3841 27.3947C50.8736 27.3923 49.2796 25.3247 49.5434 21.1157C49.8004 17.0102 52.0829 13.0355 54.949 11.702C56.7234 10.8768 57.9958 10.9111 59.7808 11.833ZM38.8429 19.5312C34.903 23.6745 31.1623 26.6525 27.435 28.6122C26.0383 29.3467 24.895 30.0624 24.894 30.2025C24.8934 30.3427 26.209 30.4577 27.8176 30.4577C31.919 30.4577 31.9601 30.4223 38.6293 21.1879C40.7574 18.2409 42.461 15.8376 42.4145 15.8467C42.3683 15.8559 40.761 17.514 38.8429 19.5312Z" fill="#0C5A96"/>
</svg>
