<svg width="77" height="26" viewBox="0 0 77 26" fill="none" xmlns="http://www.w3.org/2000/svg">
<g id="ucell-seeklogo.com 1" clip-path="url(#clip0_14_52)">
<g id="Group">
<g id="Group_2">
<path id="Vector" fill-rule="evenodd" clip-rule="evenodd" d="M46.9345 14.1846C46.9345 13.8165 47.2175 10.296 50.9846 10.296C53.4827 10.296 54.3851 11.7519 54.8591 14.1846H46.9345ZM51.121 6.51301C45.5105 6.51301 42.0593 10.8983 42.0593 16.1559C42.0593 20.6977 44.5871 25.7345 51.121 25.7345C57.0488 25.7345 58.7331 21.8164 59.4192 19.6244H56.3258C55.6171 19.6244 55.0972 19.9154 54.6146 20.5296C54.4115 20.768 53.3745 21.9868 51.2933 21.9868C47.0758 21.9868 47.0146 18.5409 46.9345 17.3622H59.7293C60.0911 12.071 57.3723 6.51295 51.1205 6.51295" fill="#6A2C8F"/>
<path id="Vector_2" fill-rule="evenodd" clip-rule="evenodd" d="M62.7537 0.128695V20.6868C62.7927 24.1505 63.4113 25.3546 67.597 25.3546L67.5933 4.18362C67.5609 0.772493 66.9223 0.128695 62.7537 0.128695Z" fill="#6A2C8F"/>
<path id="Vector_3" fill-rule="evenodd" clip-rule="evenodd" d="M72.1506 0.128695V20.6868C72.1872 24.1505 72.8061 25.3546 76.9928 25.3546L76.99 4.18362C76.9571 0.772493 76.3143 0.128695 72.1504 0.128695" fill="#6A2C8F"/>
<path id="Vector_4" fill-rule="evenodd" clip-rule="evenodd" d="M36.7383 18.2826C36.7383 18.2826 35.6294 18.2408 35.2018 19.4435C34.5974 21.1566 33.4906 21.9871 31.6042 21.9871C28.6744 21.9871 27.5575 19.1121 27.5575 16.1585C27.5575 13.3524 28.7052 10.296 31.7106 10.296C33.5847 10.296 34.579 11.1608 35.0034 12.2782C35.2353 12.891 35.5797 13.4417 36.6556 13.4417H40.0783C39.8194 8.72236 35.8829 6.51304 31.7393 6.51304C25.6335 6.51304 22.689 11.0714 22.689 16.3751C22.689 22.3133 26.686 25.7351 31.6371 25.7351C35.9604 25.7351 39.5013 23.5 40.1806 18.2829H36.7383V18.2826Z" fill="#6A2C8F"/>
<path id="Vector_5" fill-rule="evenodd" clip-rule="evenodd" d="M19.72 16.1761C19.72 22.604 16.0325 25.7361 9.85853 25.7361C3.64885 25.7361 0.029541 22.6406 0.029541 16.1761V0.129608C4.37409 0.129608 5.06727 1.31325 5.11133 4.7081L5.10577 16.1759C5.10577 18.7736 5.752 21.3374 9.8587 21.3374C13.4798 21.3374 14.6443 19.7057 14.6443 16.1759V0.129433C18.9876 0.129433 19.6802 1.31307 19.7258 4.70792L19.7202 16.1757L19.72 16.1761Z" fill="#6A2C8F"/>
</g>
</g>
</g>
<defs>
<clipPath id="clip0_14_52">
<rect width="77" height="26" fill="white"/>
</clipPath>
</defs>
</svg>
